<?xml version="1.0" encoding="UTF-8"?>
<svg version="1.1" xmlns="http://www.w3.org/2000/svg" width="512" height="512">
<path d="M0 0 C0.71142151 -0.00067474 1.42284302 -0.00134949 2.15582275 -0.00204468 C13.90420306 0.01561139 25.25564118 0.68976569 36.75 3.25 C37.48750488 3.41097168 38.22500977 3.57194336 38.98486328 3.73779297 C79.59162425 12.96136665 116.28836514 39.27311153 138.75 74.25 C162.58353872 112.57440812 170.68233197 157.66189426 160.5625 201.75 C153.54796344 230.42116823 139.14658224 255.98238934 118.75 277.25 C117.98429687 278.06726563 117.21859375 278.88453125 116.4296875 279.7265625 C89.47131318 307.72513133 49.32312718 325.67027139 10.41796875 326.453125 C-19.55888785 326.80075088 -19.55888785 326.80075088 -34.25 323.25 C-35.50031006 322.95198486 -35.50031006 322.95198486 -36.77587891 322.64794922 C-65.687942 315.53580545 -90.68107712 301.68912216 -112.25 281.25 C-113.14460938 280.40824219 -114.03921875 279.56648438 -114.9609375 278.69921875 C-126.13529687 267.88481773 -134.71923797 255.81705259 -142.25 242.25 C-142.59804687 241.62786621 -142.94609375 241.00573242 -143.3046875 240.36474609 C-164.16458174 202.53658261 -167.53218253 156.84907208 -155.625 115.640625 C-150.4789235 98.77619714 -142.63441036 82.50054875 -132.25 68.25 C-131.66508789 67.44296631 -131.66508789 67.44296631 -131.06835938 66.61962891 C-103.89303742 29.50498644 -64.52948418 8.0105229 -19.6484375 0.66015625 C-13.13378017 -0.09338689 -6.54949118 0.00558007 0 0 Z M-6.5625 82.25 C-9.28588077 87.09156581 -9.37991953 90.9009362 -9.40771484 96.44946289 C-9.41279556 97.16699234 -9.41787628 97.88452179 -9.42311096 98.62379456 C-9.43378938 100.17775831 -9.44241942 101.73173721 -9.44923019 103.28572273 C-9.46104153 105.74430962 -9.48049754 108.20272263 -9.50234985 110.66123962 C-9.56390889 117.64983364 -9.61809259 124.63840666 -9.65136719 131.62719727 C-9.67228065 135.90485164 -9.70754944 140.18218347 -9.75212479 144.45965385 C-9.76630369 146.08992157 -9.77501148 147.72024629 -9.77817917 149.35057259 C-9.78307354 151.62737085 -9.80618923 153.90330769 -9.83349609 156.17993164 C-9.84158295 157.47580704 -9.8496698 158.77168243 -9.85800171 160.10682678 C-10.25 163.25 -10.25 163.25 -11.3323822 165.16882324 C-14.31992094 166.85323473 -16.94038641 166.62141473 -20.34838867 166.61889648 C-21.42704697 166.6245462 -21.42704697 166.6245462 -22.52749634 166.63031006 C-24.08910506 166.63674499 -25.65075295 166.63641016 -27.21236229 166.63012505 C-29.68922914 166.62101556 -32.16533869 166.63123847 -34.64216614 166.64674377 C-41.68403924 166.6868349 -48.72585404 166.68805365 -55.76782227 166.68579102 C-60.07676947 166.68573973 -64.38531119 166.70500397 -68.69414711 166.73512459 C-71.12491727 166.74590286 -73.55489718 166.73384423 -75.98564148 166.72129822 C-83.57778178 166.73902104 -89.78819058 166.79091679 -96.25 171.25 C-99.71350444 174.89112005 -101.1188304 177.51200278 -101.5 182.5625 C-101.18527706 187.20466337 -100.14831305 190.37193562 -96.78515625 193.69921875 C-93.17242532 196.7819647 -90.91672814 198.36983417 -86.22224426 198.39717102 C-85.37978149 198.40432632 -84.53731873 198.41148163 -83.66932678 198.41885376 C-82.74309006 198.42154266 -81.81685333 198.42423157 -80.86254883 198.42700195 C-79.40131088 198.43685875 -79.40131088 198.43685875 -77.91055298 198.44691467 C-74.67604501 198.46667787 -71.44158356 198.478318 -68.20703125 198.48828125 C-67.10331366 198.49235678 -65.99959606 198.4964323 -64.86243248 198.50063133 C-59.01888591 198.52150655 -53.17536292 198.53580109 -47.33178711 198.54516602 C-41.29688798 198.55622378 -35.26235825 198.59061256 -29.22758961 198.63033772 C-24.58726824 198.65649304 -19.94703494 198.66485699 -15.30664635 198.66844749 C-13.08232826 198.67331749 -10.85801421 198.68494316 -8.63376808 198.70348549 C-5.51702336 198.72784954 -2.40123476 198.72691639 0.71557617 198.7199707 C1.63169174 198.73278076 2.54780731 198.74559082 3.49168396 198.75878906 C9.43306015 198.71062462 12.95566432 197.85111045 17.75 194.25 C22.35672174 189.22312713 22.32887896 184.70318116 22.28344727 178.22485352 C22.29206284 177.23060364 22.30067841 176.23635376 22.30955505 175.2119751 C22.33220861 171.93401866 22.3254768 168.65691758 22.31640625 165.37890625 C22.32164222 163.09496304 22.3279186 160.81102199 22.33518982 158.52708435 C22.34559305 153.74313168 22.34103361 148.95947647 22.32641602 144.17553711 C22.30923195 138.05089161 22.3327202 131.92718457 22.36790562 125.80264378 C22.38988717 121.08678493 22.38843614 116.37115035 22.3801403 111.65525627 C22.37932115 109.39746001 22.38617769 107.13964722 22.40091133 104.88189888 C22.41836965 101.72219632 22.40380241 98.5641765 22.38110352 95.40454102 C22.39279572 94.47600815 22.40448792 93.54747528 22.41653442 92.59080505 C22.32353351 86.21426595 20.98417959 83.05358334 16.75 78.25 C8.33707446 72.32271155 -0.45552518 74.32743807 -6.5625 82.25 Z M111.75 174.25 C110.32958179 177.09083641 110.43547728 179.10477278 110.75 182.25 C112.25 184.75 112.25 184.75 114.75 186.25 C118.10257076 186.73891657 120.01389315 186.60810604 123.0625 185.125 C125.43152223 182.49275308 125.75 180.77397438 125.75 177.25 C123.94325552 174.12294224 122.6654573 172.62557223 119.3125 171.25 C115.98343446 171.25 114.38457537 172.27406848 111.75 174.25 Z M100.75 209.25 C99.67814629 211.60976171 98.74743998 213.88412195 97.875 216.3125 C93.90415626 226.72886275 88.9152983 235.67383545 81.75 244.25 C81.22921875 244.91644531 80.7084375 245.58289063 80.171875 246.26953125 C67.43916181 261.93818559 46.54596711 271.71327128 26.75 274.25 C25.08257564 274.31334832 23.41441075 274.35844724 21.74609375 274.390625 C20.84052734 274.40996094 19.93496094 274.42929687 19.00195312 274.44921875 C17.12196242 274.48313947 15.24162303 274.50130736 13.36132812 274.50390625 C8.70885078 274.62991775 6.43809881 274.73004564 2.6328125 277.60546875 C0.5467555 280.1406048 0.5467555 280.1406048 0.1875 283.3125 C0.91465126 287.10984547 1.57422987 288.01799514 4.75 290.25 C8.29528553 290.86895549 11.78452306 290.81698651 15.375 290.75 C16.40173828 290.73791504 17.42847656 290.72583008 18.48632812 290.71337891 C47.57681447 289.96851077 72.61355426 276.55179425 92.5703125 255.80078125 C102.81860691 244.68560823 113.550743 227.84281769 115.125 212.625 C115.01002061 209.23564303 115.01002061 209.23564303 113.125 206.8125 C107.94812773 203.40666298 104.45839907 204.76356426 100.75 209.25 Z " fill="#000000" transform="translate(282.25,92.75)"/>
<path d="M0 0 C1.04784058 -0.00397441 2.09568116 -0.00794881 3.17527449 -0.01204365 C6.66855438 -0.02162846 10.1614254 -0.00987098 13.6546936 0.00190735 C16.16703441 -0.00052201 18.67937425 -0.00424273 21.19171143 -0.00915527 C27.29900168 -0.01757742 33.40614166 -0.01206131 39.51342134 0.00010767 C46.64284862 0.01377909 53.77224814 0.01208499 60.90168519 0.00997434 C73.63969135 0.00678712 86.37764155 0.01843214 99.1156311 0.03804016 C111.43791411 0.05700298 123.76013143 0.06413783 136.08242798 0.05854797 C149.52787379 0.05246657 162.97329074 0.05271332 176.41873419 0.06403381 C177.8577249 0.06524094 179.29671562 0.06644693 180.73570633 0.06765175 C181.79742437 0.06855706 181.79742437 0.06855706 182.88059127 0.06948065 C187.83258193 0.07333529 192.78456176 0.07297561 197.73655319 0.0710659 C204.42937432 0.06870046 211.12210037 0.07740095 217.81490707 0.0931263 C220.25801754 0.09733339 222.70113649 0.09824412 225.14424896 0.0954361 C242.95995505 0.07808144 260.45644094 0.75320364 277.93838501 4.4992218 C278.93474976 4.71240051 279.9311145 4.92557922 280.95767212 5.1452179 C318.94296467 13.65787893 353.33545913 32.31144654 381.25088501 59.3742218 C381.810177 59.90773254 382.36946899 60.44124329 382.94570923 60.99092102 C395.98163485 73.45146785 406.70154417 87.09134668 416.25088501 102.3742218 C416.62954712 102.97895325 417.00820923 103.58368469 417.39834595 104.20674133 C429.36939062 123.63762608 437.09116284 145.22439741 442.25088501 167.3742218 C442.47534302 168.32184387 442.69980103 169.26946594 442.93106079 170.24580383 C448.87530648 196.59117516 449.12208639 227.96172827 443.25088501 254.3742218 C443.05220825 255.30863098 442.85353149 256.24304016 442.64883423 257.20576477 C438.20456473 277.71598529 431.21106047 296.91265957 421.25088501 315.3742218 C420.93683716 315.96751282 420.62278931 316.56080383 420.29922485 317.17207336 C415.12483805 326.89917026 409.02053651 335.70564982 402.25088501 344.3742218 C401.8300061 344.91369446 401.4091272 345.45316711 400.97549438 346.00898743 C384.11357146 367.33201752 363.76074501 384.81295272 340.25088501 398.3742218 C339.53771118 398.7876886 338.82453735 399.2011554 338.0897522 399.62715149 C289.29931396 427.52884826 230.50073187 433.36917545 176.45010376 419.15937805 C130.89550801 406.43963486 88.82303788 378.03406848 61.25088501 339.3742218 C60.85175903 338.83007629 60.45263306 338.28593079 60.04141235 337.72529602 C41.93351353 312.9005371 30.59488056 284.25737357 24.25088501 254.3742218 C24.07154419 253.56211243 23.89220337 252.75000305 23.70742798 251.9132843 C20.98210689 239.0525834 20.97030303 226.08739853 20.93838501 212.9992218 C20.93461853 212.14159241 20.93085205 211.28396301 20.92697144 210.40034485 C20.87160329 185.51206695 20.87160329 185.51206695 24.25088501 175.3742218 C23.67233765 175.38469543 23.09379028 175.39516907 22.49771118 175.40596008 C-6.72157689 175.86528229 -6.72157689 175.86528229 -16.74911499 167.3742218 C-22.89651705 161.4112418 -25.61367388 154.65558331 -26.06161499 146.2492218 C-25.92298419 137.91751076 -22.7378481 130.14760897 -16.86529541 124.22558594 C-9.67918516 117.93873692 -2.33322771 116.65121377 6.94619751 116.88594055 C8.01965424 116.89301529 9.09311096 116.90009003 10.19909668 116.90737915 C13.59210042 116.93513135 16.98338902 116.99783526 20.37588501 117.0617218 C22.69096517 117.08682937 25.00607146 117.1096382 27.32119751 117.13008118 C32.96500139 117.18489467 38.60782063 117.2683261 44.25088501 117.3742218 C44.54116577 116.46067932 44.83144653 115.54713684 45.13052368 114.60591125 C52.03408169 94.69255381 68.75413942 76.84090168 83.40933228 62.21089172 C83.94333145 61.6775975 84.47733063 61.14430328 85.0275116 60.59484863 C85.43122482 60.19204178 85.83493805 59.78923492 86.25088501 59.3742218 C85.05564713 59.36835556 83.86040924 59.36248932 82.62895203 59.35644531 C71.34434124 59.29913932 60.05992171 59.22633641 48.77550602 59.13850689 C42.97458864 59.09385096 37.17374072 59.05458416 31.37271118 59.02778625 C25.7704743 59.00170585 20.16850539 58.96126957 14.56643486 58.91103554 C12.43314392 58.89439891 10.29980667 58.88286474 8.16646004 58.87660789 C5.16966024 58.86693206 2.1735411 58.83883073 -0.8230896 58.80659485 C-1.69775375 58.80802994 -2.57241791 58.80946503 -3.47358704 58.8109436 C-13.48828037 58.65939395 -20.37980322 55.79997196 -27.57333374 48.80781555 C-33.82376309 41.81676082 -34.62640004 34.38753883 -34.18661499 25.25312805 C-33.17831277 16.31344854 -28.96606123 10.95865272 -22.42098999 5.06562805 C-15.36269288 0.59743705 -8.18294448 -0.06255215 0 0 Z M-16.18661499 23.1242218 C-17.50171817 28.38463451 -17.46320736 31.99704367 -14.99911499 36.7492218 C-12.31863121 39.87645288 -10.47916177 41.18853528 -6.36277771 41.63034821 C-5.4719902 41.63328133 -4.5812027 41.63621445 -3.66342163 41.63923645 C-2.63717682 41.64750961 -1.61093201 41.65578278 -0.55358887 41.66430664 C0.56653595 41.66332474 1.68666077 41.66234283 2.84072876 41.66133118 C4.0248233 41.66816422 5.20891785 41.67499725 6.42889404 41.68203735 C9.67264704 41.69918126 12.91629441 41.70771667 16.16008377 41.71307564 C19.55620024 41.7212736 22.9522337 41.74220025 26.34829712 41.76228333 C34.98245428 41.81122674 43.61664644 41.84357 52.25088501 41.8742218 C61.57237563 41.90731337 70.89380136 41.94322924 80.21519184 41.99835253 C83.59558038 42.01786719 86.97588076 42.03311156 90.35632324 42.03869629 C94.12465866 42.04611869 97.89276534 42.06536689 101.66104126 42.08711243 C102.78116608 42.08613052 103.90129089 42.08514862 105.05535889 42.08413696 C106.0816037 42.09241013 107.10784851 42.10068329 108.16519165 42.10920715 C109.50137291 42.11360683 109.50137291 42.11360683 110.86454773 42.1180954 C113.44922937 42.39551017 115.06396625 42.98479191 117.25088501 44.3742218 C118.82024095 47.51293368 118.60289604 49.91278002 118.25088501 53.3742218 C114.58679831 57.51443277 110.26900432 60.98635786 106.06338501 64.5617218 C88.30726551 79.83984165 73.66301284 97.6544719 62.12588501 118.0617218 C61.75979126 118.70842834 61.39369751 119.35513489 61.01651001 120.0214386 C59.43341761 122.90552178 58.1742229 125.62096023 57.19619751 128.76875305 C56.72826782 130.05846008 56.72826782 130.05846008 56.25088501 131.3742218 C53.34510491 132.34281517 51.45639698 132.50910213 48.43154907 132.53193665 C47.45333191 132.54219879 46.47511475 132.55246094 45.46725464 132.56303406 C43.88288605 132.57398605 43.88288605 132.57398605 42.26651001 132.5851593 C40.02952359 132.61323283 37.79254452 132.64189733 35.55557251 132.6710968 C32.0292078 132.71231788 28.50297964 132.74920613 24.97647095 132.77558899 C21.57286204 132.80326061 18.16987713 132.84913835 14.76651001 132.8976593 C13.71836121 132.90091217 12.6702124 132.90416504 11.59030151 132.90751648 C4.55836471 133.02508947 -0.29300737 133.91856639 -6.12411499 138.0617218 C-8.43274429 141.34707889 -9.03531606 144.44079169 -8.74911499 148.3742218 C-7.76285295 151.85027823 -6.25775371 154.53142291 -3.04055786 156.32870483 C1.93873062 158.18731061 6.25392541 158.79111995 11.54776001 158.74531555 C13.09854369 158.76267754 14.6493249 158.78026209 16.20010376 158.79804993 C18.61176831 158.80815811 21.02328206 158.81170608 23.43496704 158.81001282 C25.78551251 158.81357929 28.13491764 158.84087885 30.48526001 158.87031555 C31.56502106 158.85804176 31.56502106 158.85804176 32.66659546 158.84552002 C36.12568297 158.89697825 37.94102873 159.13587553 40.71890259 161.2726593 C42.60212428 163.85604931 42.62569715 164.80516475 42.18838501 167.9367218 C42.06334595 168.91125305 41.93830688 169.8857843 41.80947876 170.8898468 C41.39980021 173.44532421 40.97514753 175.99570296 40.53604126 178.5460968 C31.70237113 230.25755617 42.94622904 282.66859947 72.93838501 325.8117218 C84.07734383 341.51067524 97.04714091 355.5490875 112.25088501 367.3742218 C112.7998645 367.80492981 113.34884399 368.23563782 113.91445923 368.67939758 C123.78509527 376.37134227 134.13836392 382.64060795 145.25088501 388.3742218 C145.94407837 388.73644836 146.63727173 389.09867493 147.35147095 389.47187805 C192.98770857 413.06257027 246.71338787 414.93183947 295.23526001 399.84687805 C320.26967359 391.73360286 342.40921241 378.5142971 362.25088501 361.3742218 C362.80792114 360.89307922 363.36495728 360.41193665 363.93887329 359.91621399 C380.3334381 345.61169306 393.38183571 329.19896699 404.25088501 310.3742218 C404.90701782 309.2501593 405.56315063 308.1260968 406.23916626 306.9679718 C415.14030087 291.28080229 421.21704789 273.92087732 425.25088501 256.3742218 C425.54503296 255.13502991 425.54503296 255.13502991 425.84512329 253.87080383 C431.9379033 227.16320481 431.69258807 196.97933786 425.25088501 170.3742218 C425.03657837 169.48041809 424.82227173 168.58661438 424.60147095 167.66572571 C412.34697001 118.17502289 381.53628028 73.91548533 337.96279907 46.95869446 C332.823385 43.90626779 327.56910972 41.10048046 322.25088501 38.3742218 C321.21762085 37.83523254 321.21762085 37.83523254 320.16348267 37.28535461 C305.40056971 29.65239747 289.66545213 24.56679542 273.43838501 21.0617218 C272.75985474 20.91444641 272.08132446 20.76717102 271.38223267 20.61543274 C254.96873413 17.3381057 238.69376438 17.0756654 222.02383423 17.08369446 C219.52039899 17.07769886 217.01696558 17.07089096 214.51353455 17.06333923 C208.46220648 17.04760654 202.41093972 17.04123639 196.35959689 17.04011448 C191.44110228 17.03915884 186.52262038 17.03502312 181.60412979 17.02871323 C167.62895177 17.01115145 153.65380422 17.00186826 139.67861508 17.00337417 C138.92838212 17.00345409 138.17814917 17.003534 137.40518188 17.00361633 C136.65402482 17.00369809 135.90286775 17.00377986 135.12894835 17.00386409 C122.9226701 17.00467914 110.71651459 16.9854734 98.51027189 16.9573396 C85.94734328 16.92861355 73.38447463 16.91479864 60.82151234 16.91652715 C53.77973732 16.91719037 46.7380916 16.91172581 39.69634628 16.89017105 C33.08550497 16.87006205 26.47489058 16.8706294 19.86401939 16.88520432 C17.43842991 16.88729877 15.01282347 16.88255383 12.58726311 16.8704834 C9.27753763 16.85507802 5.96876222 16.86430829 2.65905762 16.87974548 C1.69885173 16.86945836 0.73864584 16.85917123 -0.2506572 16.84857237 C-6.66161098 16.91469781 -11.88351836 17.88566938 -16.18661499 23.1242218 Z " fill="#000000" transform="translate(49.749114990234375,42.62577819824219)"/>
</svg>
