<?xml version="1.0" encoding="UTF-8"?>
<svg version="1.1" xmlns="http://www.w3.org/2000/svg" width="512" height="512">
<path d="M0 0 C3.92487792 2.0382088 7.09363203 2.18460964 11.45703125 2.2265625 C12.74673828 2.25041016 14.03644531 2.27425781 15.36523438 2.29882812 C18.06088287 2.34489933 20.75501205 2.37278253 23.45117188 2.39257812 C39.93974258 2.7437463 52.81290367 8.12536571 64.27734375 20.07421875 C66.0234375 22.05078125 66.0234375 22.05078125 67.42578125 23.90234375 C72.93812915 31.15627403 81.16034747 34.13951442 89.5859375 36.98828125 C103.44000021 41.85916209 112.31116507 50.73082685 118.66113281 63.74511719 C120.3639055 67.38437647 121.7619817 71.05218811 123.0234375 74.86328125 C125.78403821 82.78550934 130.76881722 88.06063964 137.0234375 93.48828125 C147.37400278 102.53322811 153.88990643 114.29727093 155.0234375 128.05078125 C155.07711203 132.67042948 155.02531166 137.28993103 154.86230469 141.90698242 C154.67480884 150.26170827 156.30969749 157.58377527 160.5234375 164.86328125 C166.90390579 177.16158568 167.4356345 190.31830784 164.15234375 203.5625 C162.42835118 208.8895774 160.04092382 213.83299031 157.546875 218.8359375 C155.52423061 223.10423579 154.89469122 226.2066968 155.06640625 230.91015625 C155.57089141 250.46981442 153.53961613 266.16062138 139.88671875 281.17578125 C137.31808146 283.76057349 134.57085549 286.10673323 131.80859375 288.48046875 C125.68155263 293.8701198 123.68025011 300.60171801 120.90625 308.05078125 C115.65846711 321.4960812 106.95509014 330.17081061 95.0234375 338.05078125 C95.44004639 338.98422363 95.85665527 339.91766602 96.28588867 340.87939453 C105.3516151 361.19977527 114.34534475 381.54710848 123.1362915 401.98815918 C124.09867689 404.22571347 125.06178247 406.46295708 126.02490234 408.70019531 C127.7690928 412.75273026 129.51136444 416.80608543 131.25216675 420.8600769 C131.92856146 422.43517817 132.60525426 424.01015146 133.28225708 425.58499146 C134.22329947 427.77486704 135.16268508 429.9654455 136.1015625 432.15625 C136.38319748 432.81102325 136.66483246 433.46579651 136.95500183 434.14041138 C140.52230564 442.47797849 141.58104603 450.5196676 138.5859375 459.30078125 C135.47379054 466.1299094 130.20278806 470.60043659 123.45800781 473.67724609 C118.65927118 475.4259515 114.48232536 475.13398009 109.4609375 474.71875 C86.95214739 472.70530367 86.95214739 472.70530367 67.10546875 481.30859375 C61.86461028 486.16584241 57.60552547 491.83045072 53.27758789 497.48876953 C48.96930484 502.38545775 44.44160527 503.71959211 38.14453125 504.58203125 C28.96053143 504.50411821 23.36517381 503.68572327 16.3359375 497.80078125 C11.56338916 492.12531836 8.21606315 485.72511595 5.16015625 479.00390625 C4.8108606 478.24674316 4.46156494 477.48958008 4.10168457 476.70947266 C2.96577351 474.24246476 1.83810209 471.77179613 0.7109375 469.30078125 C-0.08205381 467.57248946 -0.87527003 465.84430085 -1.66870117 464.11621094 C-8.74293897 448.67810925 -15.65809834 433.16899527 -22.50239563 417.62774658 C-24.6538566 412.75067511 -26.87190064 407.90701696 -29.13549805 403.08105469 C-29.9765625 401.05078125 -29.9765625 401.05078125 -29.9765625 399.05078125 C-30.6365625 399.05078125 -31.2965625 399.05078125 -31.9765625 399.05078125 C-32.31300781 400.18902344 -32.64945313 401.32726562 -32.99609375 402.5 C-35.29927723 409.39345364 -38.48383164 415.91238128 -41.55474854 422.48779297 C-43.46735561 426.58345554 -45.36523464 430.68591425 -47.26171875 434.7890625 C-47.65200256 435.63304596 -48.04228638 436.47702942 -48.44439697 437.34658813 C-51.15207016 443.21874541 -53.80061078 449.1148783 -56.41015625 455.03125 C-56.76524765 455.83577103 -57.12033905 456.64029205 -57.4861908 457.4691925 C-59.17657924 461.30397612 -60.85936404 465.14192809 -62.53393555 468.98364258 C-74.35862143 495.97899103 -74.35862143 495.97899103 -85.9765625 503.05078125 C-89.46376034 504.21318053 -92.3621513 504.32852826 -96.0390625 504.42578125 C-97.28816406 504.47476563 -98.53726563 504.52375 -99.82421875 504.57421875 C-106.38465537 504.11428551 -111.87790159 501.43951957 -116.21801758 496.49951172 C-116.95044678 495.53158691 -117.68287598 494.56366211 -118.4375 493.56640625 C-128.02897673 480.97165089 -128.02897673 480.97165089 -142.1953125 474.94970703 C-152.66316555 473.83287875 -163.35863472 474.1761869 -173.83605957 475.0693512 C-181.7320595 475.593678 -187.59833857 473.06147255 -193.7890625 468.23828125 C-199.58919682 462.92261291 -202.03874474 456.62360104 -202.4765625 448.86328125 C-202.38425344 443.48945447 -201.11432172 439.22538073 -198.984375 434.35546875 C-198.67327789 433.62301437 -198.36218079 432.89056 -198.04165649 432.13591003 C-197.03169166 429.76895217 -196.00585906 427.40939072 -194.9765625 425.05078125 C-194.63838501 424.27064667 -194.30020752 423.49051208 -193.95178223 422.68673706 C-191.81902145 417.76897633 -189.66358454 412.861478 -187.49771118 407.95822144 C-185.51884952 403.47797579 -183.54679579 398.99473411 -181.57421875 394.51171875 C-180.98549232 393.17429878 -180.98549232 393.17429878 -180.38487244 391.80986023 C-176.82383029 383.71522261 -173.29841737 375.60543955 -169.7890625 367.48828125 C-169.26658936 366.28002686 -168.74411621 365.07177246 -168.20581055 363.8269043 C-167.23516554 361.58204131 -166.26454225 359.33716893 -165.29394531 357.09228516 C-162.54105773 350.7365636 -159.76231075 344.39215726 -156.9765625 338.05078125 C-157.66621094 337.58929688 -158.35585937 337.1278125 -159.06640625 336.65234375 C-173.3478778 326.7395528 -180.37137106 315.65200012 -186.05859375 299.44921875 C-188.87502999 292.09053001 -194.69444874 286.49490852 -200.9140625 281.86328125 C-210.83316315 273.72589573 -215.70658001 260.45851019 -216.9765625 248.05078125 C-216.98945048 245.42136985 -216.92983247 242.79961456 -216.86010742 240.17114258 C-216.63328793 231.00716752 -216.71027468 223.36386941 -220.9765625 215.05078125 C-227.55274246 201.27024891 -230.39198518 188.08586154 -225.9765625 173.05078125 C-224.11418872 168.15464666 -222.10200287 163.30528076 -219.76171875 158.6171875 C-216.43813765 151.22488078 -216.81776682 144.25869233 -216.9699707 136.32348633 C-217.20887158 119.87565022 -212.61139189 107.41733316 -201.28125 95.32421875 C-199.17015554 93.2417493 -197.00266736 91.32396682 -194.7265625 89.42578125 C-188.43086868 84.0134753 -185.86809275 77.9696409 -183.1015625 70.23828125 C-177.71652481 55.28560199 -169.67391958 45.42733494 -155.28442383 38.4152832 C-151.62352086 36.70422511 -147.92760897 35.27957193 -144.1015625 33.98828125 C-136.06033251 31.16330104 -131.23464123 26.4296505 -125.6640625 20.11328125 C-117.16479599 10.54591332 -106.42954033 3.98707119 -93.46655273 2.703125 C-89.77890888 2.57973086 -86.10371661 2.53920889 -82.4140625 2.55078125 C-70.57268843 2.58780483 -61.45389141 0.83652738 -51.12109375 -5.01953125 C-34.58401415 -12.18861129 -15.23347505 -8.1734426 0 0 Z M-47.9765625 14.05078125 C-50.07542645 14.95896892 -52.17980543 15.85449997 -54.2890625 16.73828125 C-55.73732422 17.36283203 -55.73732422 17.36283203 -57.21484375 18 C-61.98989169 19.81681456 -66.36661823 20.1758953 -71.45703125 20.2265625 C-73.3277832 20.26233398 -73.3277832 20.26233398 -75.23632812 20.29882812 C-77.83512445 20.34147371 -80.43413143 20.37289813 -83.03320312 20.39257812 C-93.24184238 20.61827041 -101.56966539 22.03316542 -109.1640625 29.30078125 C-110.40929687 30.48027344 -110.40929687 30.48027344 -111.6796875 31.68359375 C-113.71117326 33.77726785 -115.56971892 35.91865601 -117.4140625 38.17578125 C-123.8319708 45.64362385 -132.12848523 49.25752552 -141.1640625 52.61328125 C-151.62652636 56.51270257 -158.80072407 60.79013672 -163.9765625 71.05078125 C-165.32905477 74.34009497 -166.58617729 77.66466981 -167.8515625 80.98828125 C-171.74569191 91.11320193 -176.2768063 97.8639796 -184.51147461 105.03466797 C-192.39603413 111.93259829 -197.72453018 119.02415582 -198.8515625 129.73828125 C-199.00149857 133.20952844 -198.96834908 136.65755745 -198.87890625 140.12890625 C-198.58296427 153.03226812 -201.37579766 162.77538227 -206.8671875 174.50390625 C-210.33136752 182.45688291 -211.3398855 190.90785297 -208.16748047 199.15380859 C-206.83217732 202.27797709 -205.43481393 205.36276439 -203.94775391 208.41772461 C-199.18075419 218.31698196 -198.75471976 227.02007419 -199.0546875 237.87890625 C-199.25794106 250.00636888 -196.34350416 259.96667317 -187.9765625 269.05078125 C-186.71509242 270.16563309 -185.44314532 271.26868153 -184.1640625 272.36328125 C-175.46681416 279.88041969 -170.58341947 287.37811712 -166.875 298.29296875 C-163.25213925 308.76722602 -158.23312621 316.15510939 -148.2265625 321.36328125 C-143.986636 323.29690378 -139.66928766 324.90383574 -135.2890625 326.48828125 C-125.58237409 330.11814203 -117.15994719 337.13634083 -111.1640625 345.61328125 C-105.93051325 351.44495041 -98.67790759 354.88635383 -90.9765625 356.05078125 C-87.40710237 356.20215992 -83.8588668 356.09481031 -80.2890625 355.98828125 C-67.56145228 355.83572248 -57.45232697 357.91648279 -46.08618164 363.62524414 C-37.05284167 368.15970837 -27.99325732 368.16939123 -18.46875 365.0390625 C-15.91027784 364.02449595 -13.53387094 362.83687405 -11.1015625 361.55078125 C-0.65283428 356.23814064 9.03234056 355.72660842 20.57495117 356.16088867 C32.64544466 356.48722952 40.90337559 352.90611962 50.0234375 345.05078125 C51.92084381 343.07200469 53.68316156 341.03453721 55.43359375 338.92578125 C62.3759405 330.738247 71.73648806 326.42431148 81.7734375 323.05078125 C90.37389066 320.04371633 98.05852703 314.05145365 102.1574707 305.75561523 C103.17318062 303.24749489 104.11024276 300.72293803 105.0234375 298.17578125 C109.50886773 286.4107009 114.85432767 278.72656235 124.0234375 270.05078125 C132.12413476 262.3182975 136.76528718 255.11238421 137.09521484 243.53125 C137.09773304 240.68266952 137.06816776 237.83650412 137.0234375 234.98828125 C136.87276641 224.45269286 138.32429737 216.73628756 142.68969727 207.16064453 C148.02005032 195.43033867 149.42836993 186.55944434 145.0234375 174.05078125 C144.22726601 172.34543329 143.39454968 170.65659305 142.5234375 168.98828125 C137.82321885 159.94284537 136.86405151 152.21194403 137.0234375 142.11328125 C137.20624198 130.01081658 136.36238891 119.47742198 128.0234375 110.05078125 C125.92435332 108.0396056 123.75749829 106.1081049 121.5859375 104.17578125 C112.77414876 96.29957126 107.90950993 87.84402701 104.15063477 76.70800781 C102.64909371 72.3209917 100.72772328 68.80825743 98.0234375 65.05078125 C97.4871875 64.22578125 96.9509375 63.40078125 96.3984375 62.55078125 C90.7653026 56.62116557 83.58735684 53.78419915 76.0234375 51.11328125 C64.72908218 47.04323151 57.74522487 40.93157414 49.86108398 32.05395508 C44.4066455 26.06274861 37.57893983 21.33258209 29.22705078 20.90893555 C28.11056152 20.89773682 26.99407227 20.88653809 25.84375 20.875 C24.60367188 20.85115234 23.36359375 20.82730469 22.0859375 20.80273438 C19.50015759 20.76040762 16.91417527 20.72881605 14.328125 20.70898438 C2.50914185 20.44755625 -7.47979339 17.75306864 -17.85546875 12.1015625 C-27.46488666 7.3410958 -38.780081 9.58841386 -47.9765625 14.05078125 Z M-138.9765625 344.05078125 C-143.59040515 353.07183852 -147.87670585 362.16317832 -151.8515625 371.48828125 C-152.68325719 373.42614785 -153.51651328 375.36333842 -154.34986877 377.30049133 C-154.94198104 378.67699768 -155.53363817 380.05369989 -156.12486267 381.43058777 C-158.50240273 386.96364769 -160.90513941 392.48546974 -163.31640625 398.00390625 C-163.68723328 398.85279922 -164.0580603 399.7016922 -164.44012451 400.5763092 C-165.9091931 403.93851051 -167.37863846 407.30054532 -168.84979248 410.66183472 C-170.55116761 414.55005642 -172.24640415 418.44067837 -173.92822266 422.33740234 C-175.35533428 425.64134672 -176.81999409 428.92601554 -178.30224609 432.20556641 C-179.05215651 433.8998887 -179.80167972 435.59438243 -180.55078125 437.2890625 C-180.90912552 438.0639653 -181.26746979 438.8388681 -181.63667297 439.63725281 C-183.73592325 444.44760092 -184.64677863 447.84073962 -182.9765625 453.05078125 C-180.84785753 455.67941743 -179.25745269 456.84137834 -175.8873291 457.39233398 C-173.30898786 457.54528755 -170.76232776 457.55171333 -168.1796875 457.51953125 C-167.23148132 457.52658081 -166.28327515 457.53363037 -165.30633545 457.54089355 C-161.26397535 457.57029737 -157.22210064 457.55381254 -153.1796875 457.54150391 C-150.22106674 457.53910865 -147.26321269 457.56012413 -144.3046875 457.58203125 C-142.95422333 457.56505188 -142.95422333 457.56505188 -141.57647705 457.54772949 C-133.97340243 457.60763111 -127.62159801 459.44595414 -121.87524414 464.6003418 C-120.97153076 465.536604 -120.06781738 466.47286621 -119.13671875 467.4375 C-118.39717201 468.19121635 -118.39717201 468.19121635 -117.64268494 468.9601593 C-116.09568118 470.54129662 -114.56699609 472.13872955 -113.0390625 473.73828125 C-111.48263177 475.34475644 -109.92261772 476.9476341 -108.36045837 478.54853821 C-106.95796454 479.98930973 -105.56478112 481.43912702 -104.17211914 482.8894043 C-101.42200876 485.59670188 -100.52062668 485.97892372 -96.6640625 486.48828125 C-92.82783193 486.42216159 -92.82783193 486.42216159 -90.5012207 483.54150391 C-87.67263753 479.89695365 -85.78391767 475.95047371 -83.89453125 471.76171875 C-83.52317551 470.95765091 -83.15181976 470.15358307 -82.76921082 469.32514954 C-81.55823157 466.69616792 -80.36089854 464.06122788 -79.1640625 461.42578125 C-78.32103845 459.58673717 -77.47744383 457.74795454 -76.63330078 455.90942383 C-69.47840337 440.29111109 -62.48951428 424.59856916 -55.55470276 408.88153076 C-52.88881574 402.84251331 -50.19070992 396.81826628 -47.4765625 390.80078125 C-47.10837402 389.98440186 -46.74018555 389.16802246 -46.36083984 388.3269043 C-45.56683924 386.56785404 -44.77184992 384.8092501 -43.9765625 383.05078125 C-44.81058594 382.73625 -45.64460937 382.42171875 -46.50390625 382.09765625 C-52.41694189 379.84894166 -58.26395142 377.57007247 -63.9765625 374.84765625 C-67.97821396 373.25324825 -71.80029981 372.93781865 -76.07421875 373.05859375 C-94.35526087 373.42347869 -109.1207996 371.84272988 -123.140625 358.91015625 C-125.66245305 356.35613465 -127.98377288 353.65409286 -130.3046875 350.91796875 C-132.65448273 348.29366473 -135.17650999 346.18415459 -137.9765625 344.05078125 C-138.3065625 344.05078125 -138.6365625 344.05078125 -138.9765625 344.05078125 Z M66.0234375 353.05078125 C65.00149494 354.24061437 63.99777442 355.44666083 63.0234375 356.67578125 C55.41693884 365.82900526 43.61028947 371.13175567 32.0234375 373.05078125 C30.25157748 373.08514886 28.47820131 373.06802628 26.70703125 373.0078125 C10.9110816 372.44143236 10.9110816 372.44143236 -3.9765625 377.05078125 C-5.10191406 377.58832031 -5.10191406 377.58832031 -6.25 378.13671875 C-7.5342711 378.77169294 -8.80850357 379.42824641 -10.0625 380.12109375 C-12.62017033 381.36339077 -15.27051191 382.18941867 -17.9765625 383.05078125 C-11.10724244 399.27932917 -3.75947934 415.26752901 3.68725586 431.23730469 C7.65002349 439.74102471 11.58528459 448.25353634 15.41015625 456.8203125 C15.75219589 457.5839209 16.09423553 458.3475293 16.44664001 459.13427734 C18.04754741 462.70888137 19.6396494 466.28687193 21.21557617 469.87255859 C21.78390456 471.14440149 22.35264655 472.41605968 22.921875 473.6875 C23.40317871 474.77764404 23.88448242 475.86778809 24.38037109 476.9909668 C26.28940593 480.54608322 28.24700762 483.11980559 31.0234375 486.05078125 C34.39201252 487.13551743 34.39201252 487.13551743 38.0234375 486.05078125 C45.03002094 480.99205075 50.9301134 474.19133903 56.93164062 468.015625 C57.64642578 467.28988281 58.36121094 466.56414062 59.09765625 465.81640625 C60.05031372 464.83849121 60.05031372 464.83849121 61.0222168 463.84082031 C65.77565509 459.58899531 70.14550506 457.93782844 76.43725586 457.90893555 C77.73396461 457.89838387 77.73396461 457.89838387 79.05686951 457.88761902 C79.98298538 457.88345474 80.90910126 457.87929047 81.86328125 457.875 C83.83269306 457.85180831 85.80209415 457.82769124 87.77148438 457.80273438 C90.87010961 457.76758696 93.96833807 457.73824926 97.06713867 457.72485352 C100.06217081 457.70937962 103.05605304 457.66918356 106.05078125 457.625 C107.43691872 457.62786263 107.43691872 457.62786263 108.85105896 457.63078308 C113.04378282 457.55109201 115.42566413 457.41151809 119.07910156 455.20678711 C121.91886528 452.05787283 122.11213348 450.29974111 122.0234375 446.05078125 C120.92720899 442.2704108 119.33327586 438.75670704 117.7109375 435.17578125 C117.2252832 434.0664624 116.73962891 432.95714355 116.23925781 431.81420898 C115.1354277 429.2984835 114.025513 426.78642225 112.90576172 424.27783203 C110.85383059 419.6781419 108.8303202 415.06615495 106.80859375 410.453125 C104.52974504 405.25529733 102.24996979 400.05790397 99.9621582 394.86401367 C92.52724106 377.97831346 85.25313309 361.02520076 78.0234375 344.05078125 C73.47652506 344.05078125 69.13762422 350.02847271 66.0234375 353.05078125 Z " fill="#000000" transform="translate(286.9765625,7.94921875)"/>
<path d="M0 0 C1.65422017 1.53266405 3.29986018 3.07463253 4.9375 4.625 C5.82179688 5.44484375 6.70609375 6.2646875 7.6171875 7.109375 C30.17762354 28.71115228 43.73588463 57.30009577 49.9375 87.625 C50.30681641 89.42710938 50.30681641 89.42710938 50.68359375 91.265625 C57.1590708 130.38643807 47.5253551 172.74829539 24.52734375 205.09765625 C-0.33965467 238.75581752 -36.42319046 262.2641184 -78.0625 268.625 C-79.77373047 268.89957031 -79.77373047 268.89957031 -81.51953125 269.1796875 C-88.12170308 269.9710951 -94.79686529 269.86937089 -101.4375 269.875 C-102.15214417 269.87567474 -102.86678833 269.87634949 -103.60308838 269.87704468 C-114.68561778 269.86043408 -125.26928323 269.26993686 -136.0625 266.625 C-136.78469727 266.45871094 -137.50689453 266.29242188 -138.25097656 266.12109375 C-150.15962433 263.33845862 -161.0885712 258.98049867 -172.0625 253.625 C-173.58810547 252.88443359 -173.58810547 252.88443359 -175.14453125 252.12890625 C-187.99285359 245.48841169 -199.29491787 236.1862555 -210.0625 226.625 C-210.71605469 226.04492188 -211.36960938 225.46484375 -212.04296875 224.8671875 C-239.15323875 199.23800113 -255.06184891 159.94776899 -256.34375 123.06640625 C-257.20164622 81.01459744 -244.21787313 41.41617261 -215.1796875 10.42578125 C-190.72978133 -15.01937594 -158.41082217 -32.87612263 -123.0625 -37.375 C-122.27230469 -37.48457031 -121.48210937 -37.59414063 -120.66796875 -37.70703125 C-77.01864602 -42.73575507 -32.89245946 -29.0197209 0 0 Z M-206.0625 27.625 C-217.27982805 40.67585809 -225.82419963 56.27199382 -231.0625 72.625 C-229.92296875 72.6343457 -228.7834375 72.64369141 -227.609375 72.65332031 C-223.35231472 72.69341055 -219.09596273 72.75922095 -214.83935547 72.83251953 C-213.00253447 72.86061931 -211.16559503 72.88188818 -209.32861328 72.89599609 C-206.67679686 72.91757897 -204.02638815 72.96430499 -201.375 73.015625 C-200.15731934 73.01746796 -200.15731934 73.01746796 -198.91503906 73.01934814 C-193.24461915 73.16266034 -188.79702123 74.41480227 -184.0625 77.625 C-183.53398437 78.35847656 -183.00546875 79.09195313 -182.4609375 79.84765625 C-181.12483691 81.95595467 -181.12483691 81.95595467 -178.1015625 82.12109375 C-176.97492188 82.10175781 -175.84828125 82.08242187 -174.6875 82.0625 C-173.56601563 82.06121094 -172.44453125 82.05992187 -171.2890625 82.05859375 C-161.44203718 80.73532521 -154.28149567 70.1583883 -148.1640625 63.01171875 C-145.24129387 59.69236627 -142.21285513 56.47574407 -139.1875 53.25 C-134.51421904 48.2642293 -129.88976157 43.24398042 -125.3359375 38.1484375 C-122.09774495 34.55415505 -118.80869654 31.00762246 -115.51879883 27.46069336 C-111.64651611 23.27922405 -107.85117328 19.03479432 -104.09765625 14.74609375 C-98.3327135 8.73771771 -92.5333206 5.56745102 -84.1875 5.1875 C-77.90450017 5.41948769 -72.05670322 7.07835136 -67.20703125 11.203125 C-61.38998011 17.58033662 -59.73978854 23.8830143 -59.56640625 32.3671875 C-60.82415507 40.62673484 -65.63030608 47.33604677 -70.3125 54.0625 C-71.40512013 55.64171724 -72.4938776 57.22361633 -73.578125 58.80859375 C-74.05540039 59.49493896 -74.53267578 60.18128418 -75.02441406 60.88842773 C-76.23353105 62.57391232 -76.23353105 62.57391232 -76.0625 64.625 C-74.3156189 64.63901855 -74.3156189 64.63901855 -72.53344727 64.65332031 C-68.17760151 64.69344828 -63.82244521 64.75926869 -59.46704102 64.83251953 C-57.58855096 64.86059764 -55.70994566 64.8818771 -53.83129883 64.89599609 C-51.11740671 64.91760925 -48.40488128 64.96435047 -45.69140625 65.015625 C-44.86290665 65.01685364 -44.03440704 65.01808228 -43.18080139 65.01934814 C-36.22187296 65.19084158 -30.22569037 67.07300234 -24.7578125 71.484375 C-19.33571158 78.01247661 -16.53972352 83.70993672 -16.82421875 92.3046875 C-17.22028707 96.16148394 -18.07135975 99.88167567 -19.0625 103.625 C-18.340625 104.07875 -17.61875 104.5325 -16.875 105 C-11.99776253 109.55208831 -9.47343879 114.46502244 -8.609375 121.109375 C-8.39983499 128.08406395 -8.76175354 133.94580916 -13.0625 139.625 C-14.69086738 141.3291054 -16.35019752 143.00525441 -18.0625 144.625 C-19.38632628 147.6447047 -19.38632628 147.6447047 -18.125 150.8125 C-16.05458575 158.24163349 -16.70603707 164.71390658 -20.0625 171.625 C-22.42795372 174.94294308 -25.18890988 177.75140988 -28.0625 180.625 C-27.57716797 181.66720703 -27.57716797 181.66720703 -27.08203125 182.73046875 C-24.86653612 189.02043769 -25.13112128 196.80448108 -27.25 203.125 C-30.93859141 210.24779721 -37.48829601 215.10026534 -45.0625 217.625 C-46.81848995 217.73271266 -48.5782066 217.78375265 -50.33740234 217.80200195 C-51.41637787 217.81483719 -52.49535339 217.82767242 -53.60702515 217.84089661 C-54.77569122 217.84828354 -55.9443573 217.85567047 -57.1484375 217.86328125 C-58.35633942 217.871353 -59.56424133 217.87942474 -60.80874634 217.88774109 C-63.37264571 217.90158745 -65.93656356 217.91230712 -68.50048828 217.92016602 C-72.38741116 217.93727947 -76.27346132 217.98115062 -80.16015625 218.02539062 C-82.65624377 218.03552656 -85.1523385 218.04403984 -87.6484375 218.05078125 C-88.79686127 218.06828934 -89.94528503 218.08579742 -91.12850952 218.10383606 C-103.90251007 218.07018338 -114.46576783 213.82514521 -125.625 207.9375 C-127.52031221 206.95091661 -129.41737937 205.96769539 -131.31640625 204.98828125 C-132.13439697 204.55813721 -132.9523877 204.12799316 -133.79516602 203.68481445 C-137.26205395 202.06429539 -140.39027785 201.50170121 -144.20092773 201.43212891 C-145.00533798 201.41606598 -145.80974823 201.40000305 -146.63853455 201.38345337 C-150.29457427 201.33873941 -153.95044029 201.29797803 -157.60668945 201.27490234 C-159.53389539 201.25831514 -161.46103912 201.23098883 -163.38793945 201.19287109 C-166.17431358 201.13809154 -168.95925368 201.11623182 -171.74609375 201.1015625 C-172.60456406 201.07889313 -173.46303436 201.05622375 -174.34751892 201.03286743 C-178.79965339 201.04857983 -180.47723841 201.13683852 -184.01586914 204.08837891 C-184.69125732 204.92546387 -185.36664551 205.76254883 -186.0625 206.625 C-188.125 207.734375 -188.125 207.734375 -190.0625 208.375 C-190.743125 208.60316406 -191.42375 208.83132813 -192.125 209.06640625 C-194.41932535 209.72787505 -196.70296933 210.25632333 -199.0625 210.625 C-196.06312992 214.69243845 -192.66533854 217.80586086 -188.6875 220.875 C-187.76602173 221.58897949 -187.76602173 221.58897949 -186.82592773 222.31738281 C-167.64046251 236.97725913 -146.95290124 246.3340056 -123.0625 250.625 C-121.55042969 250.90150391 -121.55042969 250.90150391 -120.0078125 251.18359375 C-84.20062215 255.18974475 -48.04069743 246.73872703 -19.44970703 224.36279297 C9.47161013 201.1595655 29.43700844 169.3048373 33.75219727 131.97143555 C36.58691353 96.07623396 28.3193791 60.14416278 5.375 31.75 C3.90691374 30.03213518 2.42817294 28.32330239 0.9375 26.625 C0.256875 25.82320312 -0.42375 25.02140625 -1.125 24.1953125 C-23.493547 -1.7556971 -57.13705491 -17.35584542 -91.03710938 -20.22998047 C-135.28122217 -23.39789308 -176.61707995 -5.15110149 -206.0625 27.625 Z M-104.54101562 40.94628906 C-106.43995479 43.04146007 -108.35185166 45.12449866 -110.26489258 47.20678711 C-111.62475375 48.68723192 -112.98256953 50.16952717 -114.33984375 51.65234375 C-116.18437893 53.66704145 -118.03085422 55.67993407 -119.87890625 57.69140625 C-124.10773476 62.29573948 -128.32653086 66.90776595 -132.5 71.5625 C-134.01953195 73.25117195 -135.54047914 74.938571 -137.0625 76.625 C-137.53864746 77.15303223 -138.01479492 77.68106445 -138.50537109 78.22509766 C-151.44088889 92.53262655 -157.50422657 97.91181055 -178.0625 99.625 C-178.0625 127.345 -178.0625 155.065 -178.0625 183.625 C-164.8625 183.955 -151.6625 184.285 -138.0625 184.625 C-129.069159 187.39218184 -121.22751604 190.1729748 -112.9375 194.3125 C-110.93555596 195.2969165 -108.93298114 196.28005159 -106.9296875 197.26171875 C-106.06456543 197.69186279 -105.19944336 198.12200684 -104.30810547 198.56518555 C-100.77977611 200.23038209 -98.05369962 200.75335032 -94.19555664 200.77026367 C-93.2076564 200.77664352 -92.21975616 200.78302338 -91.20191956 200.78959656 C-90.13626266 200.79070938 -89.07060577 200.7918222 -87.97265625 200.79296875 C-86.87658554 200.79629715 -85.78051483 200.79962555 -84.65122986 200.80305481 C-82.33202535 200.80811981 -80.01281355 200.81046327 -77.69360352 200.81030273 C-74.14261901 200.81248915 -70.59194515 200.83064942 -67.04101562 200.84960938 C-64.78906356 200.85254336 -62.53711003 200.85452812 -60.28515625 200.85546875 C-58.68970726 200.86624702 -58.68970726 200.86624702 -57.06202698 200.87724304 C-56.07097458 200.87416641 -55.07992218 200.87108978 -54.05883789 200.86791992 C-52.75336754 200.87005745 -52.75336754 200.87005745 -51.42152405 200.87223816 C-48.81710572 200.59928139 -47.2561919 200.0436917 -45.0625 198.625 C-42.73500655 195.13375983 -42.55950684 193.73277749 -43.0625 189.625 C-45.3254982 186.18130709 -47.83039515 185.28068584 -51.625 184.125 C-54.42190298 183.26476833 -55.90149045 182.76649324 -58.125 180.8125 C-59.42700609 177.77448579 -59.59737984 175.90113904 -59.0625 172.625 C-57.41201402 169.76838966 -56.94064177 168.98072701 -54.0625 167.625 C-50.49728653 167.19955686 -47.02762542 167.06246242 -43.4375 167.05859375 C-39.44520154 166.54569429 -37.86295024 165.46141932 -35.0625 162.625 C-33.7547243 159.00938482 -33.68759955 157.43103596 -35.3125 153.9375 C-38.87179644 150.94445526 -42.19756451 150.31665572 -46.69921875 149.3984375 C-47.47910156 149.14320313 -48.25898438 148.88796875 -49.0625 148.625 C-50.27151009 144.99796974 -50.84910475 141.38482637 -50.0625 137.625 C-48.4765625 135.40625 -48.4765625 135.40625 -46.0625 133.625 C-42.78515625 133.12109375 -42.78515625 133.12109375 -39.125 133.0625 C-34.16470639 132.97231284 -31.08076209 132.65164677 -27.0625 129.625 C-25.61819145 126.73638291 -25.68561494 124.82852299 -26.0625 121.625 C-27.71298598 118.76838966 -28.18435823 117.98072701 -31.0625 116.625 C-34.62771347 116.19955686 -38.09737458 116.06246242 -41.6875 116.05859375 C-45.69600961 115.54361161 -47.30761319 114.54405139 -50.0625 111.625 C-50.92850106 108.87100905 -50.66444351 106.4321404 -50.0625 103.625 C-47.85968989 100.08134895 -45.33323332 99.32373528 -41.5 98.1875 C-38.28996875 97.2091544 -37.24091547 96.82440553 -34.9375 94.25 C-33.89071561 91.10964683 -33.87566302 89.71077615 -35.0625 86.625 C-37.15354457 84.03942183 -38.33233445 82.77034731 -41.635849 82.11274719 C-42.60671951 82.10688095 -43.57759003 82.10101471 -44.57788086 82.0949707 C-45.68260239 82.07847977 -46.78732391 82.06198883 -47.92552185 82.04499817 C-49.11412308 82.04690659 -50.3027243 82.048815 -51.52734375 82.05078125 C-52.75280411 82.03661667 -53.97826447 82.02245209 -55.24085999 82.00785828 C-59.1606621 81.96589231 -63.08000469 81.95070996 -67 81.9375 C-70.91620989 81.90842697 -74.83230348 81.87383821 -78.74842834 81.83500671 C-81.18574277 81.81256083 -83.62312885 81.79671626 -86.06053162 81.78816223 C-87.1684053 81.78112778 -88.27627899 81.77409332 -89.41772461 81.7668457 C-90.38939072 81.76336624 -91.36105682 81.75988678 -92.36216736 81.75630188 C-95.02390757 81.62687653 -97.46820109 81.21840031 -100.0625 80.625 C-101.46850978 76.40697067 -101.96600608 72.9618292 -101.0625 68.625 C-98.6093394 63.82984468 -95.54865197 59.50512705 -92.4375 55.125 C-91.61916249 53.9427407 -90.80274007 52.75915342 -89.98828125 51.57421875 C-87.06612439 47.33474178 -84.11820513 43.11384587 -81.13989258 38.91357422 C-80.59228271 38.1248291 -80.04467285 37.33608398 -79.48046875 36.5234375 C-78.77313599 35.52062744 -78.77313599 35.52062744 -78.05151367 34.49755859 C-76.76653302 32.40675403 -76.76653302 32.40675403 -77 28.75 C-78.19778227 25.0053845 -78.19778227 25.0053845 -81.0625 22.625 C-90.72148884 21.67649046 -98.57261857 34.3525957 -104.54101562 40.94628906 Z M-236.0625 90.625 C-237.86438543 103.23766899 -237.86438543 103.23766899 -238.375 115.8125 C-238.37008545 116.79226807 -238.3651709 117.77203613 -238.36010742 118.78149414 C-237.99253741 142.06281348 -231.35072342 175.33677658 -214.0625 192.625 C-208.1225 192.625 -202.1825 192.625 -196.0625 192.625 C-196.0625 158.965 -196.0625 125.305 -196.0625 90.625 C-209.2625 90.625 -222.4625 90.625 -236.0625 90.625 Z " fill="#000000" transform="translate(358.0625,80.375)"/>
</svg>
