<?xml version="1.0" encoding="UTF-8"?>
<svg version="1.1" xmlns="http://www.w3.org/2000/svg" width="512" height="512">
<path d="M0 0 C2.66109493 1.53285124 5.31721312 3.07396716 7.97077942 4.61981201 C24.94456204 14.32797503 39.85405493 16.14740186 59.21916199 15.56619263 C60.13320297 15.54074371 61.04724396 15.5152948 61.98898315 15.48907471 C63.70145358 15.43048232 65.41335337 15.34853114 67.12329102 15.23852539 C72.51503157 14.9967452 75.32094348 15.82520473 79.61759949 19.41018677 C81.45011593 21.33886225 83.1363766 23.22811335 84.80509949 25.28518677 C85.26996765 25.84528442 85.73483582 26.40538208 86.21379089 26.98245239 C90.18184787 31.79367152 94.03555372 36.69923888 97.82536316 41.65188599 C102.35811197 47.52610788 106.38794553 51.63573871 113.16838074 54.78518677 C113.78601791 55.07699829 114.40365509 55.36880981 115.04000854 55.66946411 C116.99877083 56.59326257 118.96377334 57.50261441 120.93009949 58.41018677 C142.93688026 68.65072273 142.93688026 68.65072273 146.61759949 74.41018677 C147.44548035 76.79763794 147.44548035 76.79763794 148.08244324 79.45315552 C148.32228943 80.43606567 148.56213562 81.41897583 148.80924988 82.43167114 C149.05538025 83.4764563 149.30151062 84.52124146 149.55509949 85.59768677 C149.82249939 86.67469849 150.08989929 87.75171021 150.36540222 88.86135864 C151.53788988 93.62651878 152.6564639 98.36494794 153.43791199 103.21096802 C155.3437658 114.46177729 160.31351318 120.98853492 167.84660339 129.39553833 C170.81165466 132.76851918 173.56975579 136.28761844 176.30509949 139.84768677 C176.80976746 140.47360718 177.31443542 141.09952759 177.83439636 141.74441528 C181.69067302 146.76699019 183.90166012 152.10120125 183.47659302 158.54914856 C183.09636298 160.70437673 182.60906144 162.79884681 182.06291199 164.91799927 C181.88251373 165.68772064 181.70211548 166.45744202 181.51625061 167.25048828 C180.94321929 169.68350267 180.34462338 172.10919974 179.74259949 174.53518677 C179.15188403 176.96905037 178.56692563 179.40405087 177.9903717 181.84130859 C177.63226715 183.34947021 177.26553977 184.85562068 176.8886261 186.35919189 C175.17776066 193.4561037 175.43286643 199.49592504 177.11369324 206.62893677 C177.3431942 207.62129333 177.3431942 207.62129333 177.57733154 208.63369751 C178.06272342 210.72761868 178.55827977 212.81895049 179.05509949 214.91018677 C179.54668079 217.00176487 180.03599495 219.09383127 180.52215576 221.18667603 C180.96410964 223.08579847 181.41261106 224.98339374 181.86149597 226.88088989 C183.48493396 234.45868118 183.99049432 239.38996612 180.61759949 246.41018677 C178.82568949 249.16775218 176.77838454 251.62274502 174.61759949 254.09768677 C172.95930303 256.04899049 171.3092832 258.00536733 169.67643738 259.97805786 C168.12010627 261.81656972 166.53563747 263.58083282 164.90055847 265.34622192 C156.43207529 274.8373838 153.95567769 284.08865093 151.68009949 296.41018677 C151.16524127 299.03888981 150.63919042 301.66466457 150.09939575 304.2883606 C149.77006217 305.90341477 149.45613058 307.52171941 149.16082764 309.14334106 C147.74794992 316.33757071 144.7620125 321.20133811 138.61759949 325.41018677 C136.12084715 326.81424268 133.5652462 328.06686079 130.98088074 329.30081177 C130.26022934 329.6502887 129.53957794 329.99976563 128.79708862 330.35983276 C127.28324931 331.09224002 125.76790406 331.82154193 124.25114441 332.54788208 C121.92344249 333.66337697 119.60132513 334.78990203 117.27970886 335.91799927 C115.80541523 336.62959131 114.33081639 337.34055141 112.85588074 338.05081177 C112.16005386 338.38824402 111.46422699 338.72567627 110.74731445 339.07333374 C105.84896399 341.41018677 105.84896399 341.41018677 103.61759949 341.41018677 C103.34447937 341.9971936 103.07135925 342.58420044 102.78996277 343.18899536 C101.64751946 345.35349957 100.41406093 347.06535938 98.85978699 348.94924927 C98.05045715 349.93683228 98.05045715 349.93683228 97.22477722 350.94436646 C96.36734924 351.97932251 96.36734924 351.97932251 95.49259949 353.03518677 C94.31385323 354.46978619 93.13546726 355.90468172 91.95744324 357.33987427 C91.38493835 358.03564575 90.81243347 358.73141724 90.22257996 359.44827271 C87.53846403 362.72931249 84.91860644 366.06012891 82.30119324 369.39456177 C81.7456073 370.05971802 81.19002136 370.72487427 80.61759949 371.41018677 C80.03107605 372.11659302 79.44455261 372.82299927 78.84025574 373.55081177 C73.64762125 377.89473798 67.4359095 377.59916617 61.05509949 377.29690552 C37.56686014 376.67322785 20.67294576 379.55884311 0.49382019 391.822052 C-5.73587834 395.26184395 -10.5465334 396.10115038 -17.38240051 394.41018677 C-21.29991832 392.89875934 -25.01581749 391.06075215 -28.75740051 389.16018677 C-31.68214493 387.70954482 -34.60790389 386.26248309 -37.54426575 384.83547974 C-39.3375258 383.93491611 -41.10586778 382.9811396 -42.8318634 381.95755005 C-52.00564569 376.90678559 -61.89080784 377.73155143 -72.06990051 377.78518677 C-74.83843566 377.78905445 -77.60632279 377.78545697 -80.37478638 377.7645874 C-82.0855123 377.75264285 -83.79642208 377.75492459 -85.50708008 377.77429199 C-92.14093931 377.74338833 -97.76968338 376.64344725 -102.96443176 372.20315552 C-103.70048645 371.34335083 -104.43654114 370.48354614 -105.19490051 369.59768677 C-106.44786926 368.14362427 -106.44786926 368.14362427 -107.72615051 366.66018677 C-111.95471059 361.53274116 -116.04904858 356.30124157 -120.09968567 351.03274536 C-121.42635203 349.3545907 -122.81015214 347.73751256 -124.20661926 346.11721802 C-126.38240051 343.41018677 -126.38240051 343.41018677 -126.38240051 341.41018677 C-127.22480286 341.14681519 -128.0672052 340.8834436 -128.93513489 340.61209106 C-134.73273044 338.59073392 -140.21542512 335.87716997 -145.75007629 333.23513794 C-147.16817612 332.56180843 -148.58974686 331.89573953 -150.01472473 331.23709106 C-166.91949179 323.42122337 -166.91949179 323.42122337 -170.63240051 314.35940552 C-170.87990051 313.28303833 -171.12740051 312.20667114 -171.38240051 311.09768677 C-171.53789368 310.47942017 -171.69338684 309.86115356 -171.85359192 309.22415161 C-172.90758184 304.92774247 -173.70708762 300.60696012 -174.46833801 296.25003052 C-177.22150414 281.42394729 -181.12724901 272.05783461 -191.64460754 261.23587036 C-194.30810177 258.43766724 -196.69809581 255.45598381 -199.06990051 252.41018677 C-199.8368927 251.46143677 -200.60388489 250.51268677 -201.39411926 249.53518677 C-206.0570834 242.20636298 -206.83337483 236.89909878 -205.01985168 228.38821411 C-204.7682428 227.32296509 -204.51663391 226.25771606 -204.25740051 225.16018677 C-204.01674866 224.05497681 -203.7760968 222.94976685 -203.52815247 221.81106567 C-202.07805012 215.2060708 -200.56037393 208.6048025 -198.86286926 202.05862427 C-197.72315547 195.77629945 -198.6800907 190.24199251 -200.20271301 184.16799927 C-200.57708296 182.59133577 -200.95075952 181.0145075 -201.32380676 179.43753052 C-201.91285291 176.98472471 -202.50775224 174.53376939 -203.11531067 172.08547974 C-203.70361174 169.70015142 -204.26711169 167.30996708 -204.82771301 164.91799927 C-205.01302582 164.19895416 -205.19833862 163.47990906 -205.38926697 162.73907471 C-206.93768746 156.00253611 -206.06681653 150.17426903 -202.45661926 144.25003052 C-201.66900208 143.29225708 -200.88138489 142.33448364 -200.06990051 141.34768677 C-199.64056213 140.81385376 -199.21122375 140.28002075 -198.76887512 139.73001099 C-197.32412625 137.94166414 -195.85615038 136.17469848 -194.38240051 134.41018677 C-192.6444306 132.32171456 -190.90888725 130.23145009 -189.18049622 128.13504028 C-188.05004396 126.76733458 -186.91093975 125.40671967 -185.76203918 124.05447388 C-185.23585999 123.42162476 -184.70968079 122.78877563 -184.16755676 122.13674927 C-183.70228577 121.58583618 -183.23701477 121.0349231 -182.75764465 120.46731567 C-179.27749247 115.26160605 -177.76388654 109.55259579 -176.44490051 103.50003052 C-176.10377163 102.0006777 -175.76262527 100.50132886 -175.42146301 99.00198364 C-174.89947923 96.6700137 -174.38013173 94.33747405 -173.8618927 92.00466919 C-173.35430298 89.73079152 -172.83741503 87.45916651 -172.31990051 85.18753052 C-172.1698053 84.49674911 -172.01971008 83.80596771 -171.86506653 83.09425354 C-170.28318955 76.17052007 -168.34979462 71.47217921 -162.38240051 67.41018677 C-160.63870422 66.42326357 -158.86430105 65.48900754 -157.06599426 64.60549927 C-156.05343567 64.10405396 -155.04087708 63.60260864 -153.99763489 63.08596802 C-152.94898254 62.57421021 -151.9003302 62.06245239 -150.81990051 61.53518677 C-149.79831848 61.03116333 -148.77673645 60.52713989 -147.72419739 60.00784302 C-146.70261536 59.50381958 -145.68103333 58.99979614 -144.62849426 58.48049927 C-143.60296448 57.97244751 -142.57743469 57.46439575 -141.52082825 56.94094849 C-139.39987232 55.90645656 -137.2659415 54.89821522 -135.1209259 53.9145813 C-129.03133267 51.06006984 -124.71562038 48.6371667 -120.94490051 43.03518677 C-120.04822027 41.80994047 -119.1496999 40.58603927 -118.24958801 39.36331177 C-117.7903595 38.7245813 -117.33113098 38.08585083 -116.85798645 37.42776489 C-114.20162773 33.79570856 -111.38801139 30.29222288 -108.56990051 26.78518677 C-107.77918152 25.77319214 -107.77918152 25.77319214 -106.9724884 24.74075317 C-106.46193909 24.10315063 -105.95138977 23.4655481 -105.42536926 22.80862427 C-104.98217346 22.24836548 -104.53897766 21.68810669 -104.08235168 21.11087036 C-100.40145232 17.42838508 -97.281618 15.18565714 -92.01130676 15.03884888 C-90.32207951 15.07078626 -88.63313556 15.12141575 -86.94490051 15.18753052 C-85.07132991 15.21589359 -83.19770641 15.24091746 -81.3240509 15.26296997 C-79.86637802 15.28673203 -79.86637802 15.28673203 -78.3792572 15.31097412 C-60.78634279 15.52649409 -47.31703128 14.90158685 -32.39558411 4.75784302 C-29.45896728 2.79202627 -26.44019532 1.2604831 -23.25740051 -0.27731323 C-22.38857239 -0.73493042 -21.51974426 -1.19254761 -20.62458801 -1.66403198 C-13.15209411 -3.7977441 -6.95694784 -3.78696948 0 0 Z M-116.05085754 103.25100708 C-138.58424602 129.09872966 -150.85445467 161.13291464 -150.75740051 195.41018677 C-150.75685669 196.13529449 -150.75631287 196.86040222 -150.75575256 197.60748291 C-150.71452896 209.59712032 -149.70593325 220.85475581 -146.38240051 232.41018677 C-146.17872864 233.15687622 -145.97505676 233.90356567 -145.76521301 234.67288208 C-136.11690233 269.37999966 -111.67102848 299.82488557 -80.40779114 317.52835083 C-46.07044143 336.22237685 -7.91272583 340.50635468 29.74259949 329.72268677 C38.9215995 326.9375603 47.25125526 323.05892404 55.61759949 318.41018677 C57.2534198 317.52653442 57.2534198 317.52653442 58.92228699 316.62503052 C65.71690978 312.83006944 71.72218672 308.47967214 77.61759949 303.41018677 C78.4284198 302.72182739 79.23924011 302.03346802 80.07463074 301.32424927 C101.16785568 282.92165616 116.16297333 259.42386675 123.61759949 232.41018677 C123.82787781 231.68122192 124.03815613 230.95225708 124.25480652 230.20120239 C130.43880162 208.01128489 129.96451342 181.4861824 123.61759949 159.41018677 C123.43568054 158.75002563 123.2537616 158.0898645 123.06632996 157.40969849 C113.19646485 122.34918572 88.77566196 92.7645058 57.61759949 74.41018677 C-0.25974552 42.71711049 -71.55124416 54.15427239 -116.05085754 103.25100708 Z " fill="#000000" transform="translate(267.3824005126953,2.589813232421875)"/>
<path d="M0 0 C25.21493015 21.15243989 42.05773361 49.05322391 46 82 C46.31243496 87.00344236 46.38183697 91.98756688 46.375 97 C46.37445618 97.67709015 46.37391235 98.3541803 46.37335205 99.05178833 C46.25083978 132.37855649 33.78416227 160.83617392 11 185 C10.33742188 185.73863281 9.67484375 186.47726562 8.9921875 187.23828125 C-11.20988102 208.86140782 -42.62787499 221.13919477 -71.8359375 222.28125 C-105.75315441 223.06021001 -137.65139765 212.67707737 -162.671875 189.23046875 C-163.44015625 188.49441406 -164.2084375 187.75835937 -165 187 C-165.74765625 186.31550781 -166.4953125 185.63101563 -167.265625 184.92578125 C-183.14780478 169.90434897 -193.22131762 149.85141224 -199 129 C-199.3403125 127.81148437 -199.680625 126.62296875 -200.03125 125.3984375 C-207.51476887 93.5934823 -201.06215564 58.59234161 -184 31 C-164.57473277 2.20774448 -136.63251631 -17.94962011 -102.46875 -24.97265625 C-66.60065669 -31.68389524 -28.41325044 -23.37359134 0 0 Z M-43.91091919 58.67041016 C-44.68813324 59.45206543 -45.46534729 60.2337207 -46.26611328 61.0390625 C-47.58725632 62.36043213 -47.58725632 62.36043213 -48.93508911 63.70849609 C-49.89693699 64.68055845 -50.85867553 65.652729 -51.8203125 66.625 C-52.80350893 67.6119254 -53.78714702 68.59841101 -54.77120972 69.58447266 C-57.36326347 72.18417201 -59.94925609 74.78982105 -62.53405762 77.39672852 C-65.17143405 80.05454345 -67.81446322 82.7067236 -70.45703125 85.359375 C-75.64358919 90.56739918 -80.82376076 95.78171782 -86 101 C-89.49519446 99.65952919 -92.10007451 98.34513899 -94.9609375 95.91796875 C-95.68023437 95.31533203 -96.39953125 94.71269531 -97.140625 94.09179688 C-97.87796875 93.46337891 -98.6153125 92.83496094 -99.375 92.1875 C-106.9124831 85.72662303 -106.9124831 85.72662303 -115 80 C-119.10557041 81.36852347 -120.78898286 84.23287715 -123.3125 87.5625 C-123.80016846 88.19494629 -124.28783691 88.82739258 -124.7902832 89.47900391 C-126.20144949 91.31344965 -127.6026481 93.1550183 -129 95 C-129.67804688 95.89332031 -130.35609375 96.78664062 -131.0546875 97.70703125 C-132.37855029 99.46479165 -133.69102985 101.23112141 -135 103 C-131.10282884 107.05425484 -126.94532666 110.60676576 -122.5625 114.125 C-121.86310303 114.68904541 -121.16370605 115.25309082 -120.44311523 115.83422852 C-118.29863976 117.5602225 -116.14990288 119.28077314 -114 121 C-113.02740234 121.78044678 -113.02740234 121.78044678 -112.03515625 122.57666016 C-108.05739411 125.76362499 -104.04263936 128.89573992 -100 132 C-99.16855469 132.66515625 -98.33710938 133.3303125 -97.48046875 134.015625 C-92.81381637 137.51357109 -89.30076238 138.65970908 -83.45703125 138.6015625 C-77.62878824 137.17461588 -73.37006382 132.65694907 -69.27001953 128.49707031 C-68.73269699 127.96003983 -68.19537445 127.42300934 -67.64176941 126.8697052 C-65.88399537 125.11054858 -64.13339399 123.34443672 -62.3828125 121.578125 C-61.15871265 120.35029121 -59.93416767 119.12290106 -58.709198 117.89593506 C-55.49904664 114.67817729 -52.2949492 111.45445716 -49.09210205 108.22943115 C-45.81766121 104.93446727 -42.53749364 101.64521521 -39.2578125 98.35546875 C-32.83294415 91.90920331 -26.41446092 85.45662044 -20 79 C-21.60761078 75.60429385 -23.39838762 73.34420994 -26.0625 70.671875 C-26.85914063 69.87265625 -27.65578125 69.0734375 -28.4765625 68.25 C-29.30929687 67.425 -30.14203125 66.6 -31 65.75 C-31.83273437 64.90953125 -32.66546875 64.0690625 -33.5234375 63.203125 C-34.32007813 62.4090625 -35.11671875 61.615 -35.9375 60.796875 C-36.66839844 60.06823242 -37.39929688 59.33958984 -38.15234375 58.58886719 C-40.72642676 56.37531906 -41.35881883 56.43951814 -43.91091919 58.67041016 Z " fill="#000000" transform="translate(334,101)"/>
<path d="M0 0 C1.25464916 1.64517021 1.25464916 1.64517021 2.33451843 3.82052612 C2.75086548 4.6421524 3.16721252 5.46377869 3.59617615 6.31030273 C4.03841019 7.2183667 4.48064423 8.12643066 4.9362793 9.06201172 C5.65163345 10.48877731 5.65163345 10.48877731 6.38143921 11.94436646 C7.9591771 15.09962006 9.51673141 18.26439527 11.07421875 21.4296875 C12.16353451 23.61883509 13.25402949 25.80739627 14.34565735 27.99539185 C17.21994947 33.76505896 20.07698059 39.54311484 22.9309082 45.32287598 C25.26535059 50.04351106 27.61166366 54.75819354 29.95869732 59.47257805 C34.802206 69.20193407 39.63800866 78.93515411 44.4519043 88.67919922 C44.90021103 89.58321472 45.34851776 90.48723022 45.81040955 91.41864014 C46.21829712 92.24590607 46.62618469 93.073172 47.0464325 93.92550659 C47.40165828 94.64412809 47.75688406 95.3627496 48.12287426 96.10314751 C50.41263981 101.05494324 50.96456348 105.95197941 49.31640625 111.16015625 C47.15473973 115.95887654 44.76771082 118.51681728 40 121 C37.01650525 121.94278982 34.43227609 122.08578511 31.31420898 121.9831543 C30.38901962 121.95791183 29.46383026 121.93266937 28.51060486 121.90666199 C27.01842186 121.86585258 27.01842186 121.86585258 25.49609375 121.82421875 C22.26231729 121.7853559 19.02858607 121.75902424 15.79467773 121.73364258 C13.56864615 121.70304699 11.34280455 121.64925772 9.11791992 121.5715332 C-4.14353672 120.59196051 -4.14353672 120.59196051 -15.68554688 125.81665039 C-18.18005482 128.69947546 -20.11232498 131.83612153 -21.95101929 135.1668396 C-23.51685423 137.90323559 -25.4486737 140.31340498 -27.3984375 142.78515625 C-29.40672618 145.4466262 -31.41119282 148.11081498 -33.41015625 150.77929688 C-42.19003267 162.39667756 -42.19003267 162.39667756 -47 164 C-48.74488531 164.16948727 -50.49751946 164.26599563 -52.25 164.3125 C-53.16265625 164.34988281 -54.0753125 164.38726563 -55.015625 164.42578125 C-58.97201143 163.86132298 -61.92237839 162.49100195 -65 160 C-67.12725766 157.14246577 -68.60088139 154.03008559 -70.13671875 150.82421875 C-70.62903488 149.83999435 -71.12135101 148.85576996 -71.62858582 147.84172058 C-72.77137361 145.55562353 -73.90635507 143.26676851 -75.03363037 140.9730835 C-77.22725687 136.52331123 -79.47754698 132.10285044 -81.72900391 127.68212891 C-85.73587055 119.80874837 -89.7175235 111.92306359 -93.68219185 104.02835274 C-95.9960905 99.42135033 -98.31473012 94.81687817 -100.64477539 90.21801758 C-102.93203773 85.70343592 -105.20764544 81.183165 -107.47485924 76.65848351 C-108.33399438 74.94876811 -109.19723338 73.24110841 -110.06467628 71.53559303 C-111.26505642 69.17346849 -112.45030072 66.80433356 -113.63208008 64.43286133 C-114.17023849 63.38654541 -114.17023849 63.38654541 -114.7192688 62.3190918 C-117.03817932 57.61055323 -117.03817932 57.61055323 -116.85244751 54.64038086 C-114.72521125 50.54689991 -109.20729274 48.98778411 -105.07940674 47.55560303 C-98.26558293 45.73499667 -90.93059126 46.23550309 -83.9375 46.3125 C-64.34153268 46.98075994 -64.34153268 46.98075994 -47.046875 39.0390625 C-41.19325611 33.20778567 -36.08551625 26.70261029 -31.02734375 20.18359375 C-30.54112549 19.55775391 -30.05490723 18.93191406 -29.55395508 18.28710938 C-28.6264565 17.08657474 -27.7053127 15.88109347 -26.79174805 14.66992188 C-22.33276475 8.85687957 -17.42881022 5.44348063 -10.9375 2.1875 C-10.32583984 1.86330078 -9.71417969 1.53910156 -9.08398438 1.20507812 C-5.64291631 -0.53219624 -3.61963385 -1.52834411 0 0 Z " fill="#000000" transform="translate(402,348)"/>
<path d="M0 0 C8.48204731 0.88125167 18.58230341 6.8327963 24.25 13.125 C25.52665448 14.72914411 26.77383579 16.35693995 28 18 C28.87725615 19.12470475 29.75769523 20.24693122 30.640625 21.3671875 C32.07158249 23.18477704 33.50207965 25.00265672 34.92797852 26.82421875 C43.25656643 37.45978642 49.29315721 44.37839184 63 47 C65.94559361 47.23100662 68.86736686 47.20799484 71.8203125 47.16796875 C73.50781813 47.17364999 75.19531918 47.18086092 76.8828125 47.18945312 C79.49603179 47.19360187 82.10767615 47.18771997 84.72070312 47.15454102 C96.96176951 47.02345302 105.52692616 48.34210189 116 55 C115.42390345 58.39880408 114.58675216 61.20474808 113.05316162 64.28808594 C112.64671921 65.11232056 112.24027679 65.93655518 111.82151794 66.7857666 C111.37478226 67.67630737 110.92804657 68.56684814 110.46777344 69.484375 C109.99773392 70.43292358 109.5276944 71.38147217 109.04341125 72.35876465 C107.48832328 75.49233251 105.92431767 78.62134332 104.359375 81.75 C103.27395409 83.92794221 102.1887727 86.1060038 101.1038208 88.28417969 C98.82808901 92.84909334 96.54761546 97.4116015 94.26416016 101.97265625 C91.34012831 107.81482492 88.430754 113.66415614 85.52526474 119.51556396 C83.28795871 124.01603841 81.04148104 128.51188695 78.79236603 133.00646973 C77.71592857 135.16103733 76.64267596 137.31719918 75.57268524 139.47497559 C74.07455734 142.49338769 72.56383916 145.50516724 71.04980469 148.515625 C70.61116592 149.40616577 70.17252716 150.29670654 69.72059631 151.2142334 C66.75477981 157.06628413 63.54085479 162.69741669 57 165 C54.44921875 165.3359375 54.44921875 165.3359375 51.6875 165.375 C50.78386719 165.40335938 49.88023437 165.43171875 48.94921875 165.4609375 C42.95175884 164.52358615 39.34769288 161.76621585 35.74609375 157.0859375 C34.62963169 155.52526326 33.52701508 153.95460392 32.4375 152.375 C30.73797297 149.95977152 29.02664411 147.56320863 27.25976562 145.1965332 C25.44654743 142.63166006 23.86258955 140.08686668 22.27148438 137.38745117 C16.83783804 128.5397689 16.83783804 128.5397689 8.35800171 123.04492188 C1.14461242 121.69295588 -6.08814744 122.15256665 -13.375 122.5625 C-16.6223232 122.66369206 -19.86909802 122.73926127 -23.11734009 122.80393982 C-25.12385053 122.85256312 -27.12996793 122.92661102 -29.1343689 123.03065491 C-35.22678695 123.28564255 -39.4673605 122.63723779 -45 120 C-49.07715645 115.92284355 -50.81337914 112.13869256 -51.31201172 106.42431641 C-51.2377865 101.13640397 -49.12898473 97.16027437 -46.7578125 92.5234375 C-46.04010178 91.07232071 -46.04010178 91.07232071 -45.30789185 89.59188843 C-43.88370776 86.72039977 -42.44458317 83.8568396 -41.00178528 80.99467468 C-39.13747237 77.282604 -37.29681067 73.55877702 -35.45214844 69.83691406 C-30.7309986 60.32085723 -25.97958779 50.82007829 -21.22406006 41.32116699 C-19.40308712 37.68185745 -17.58512044 34.04104956 -15.7671032 30.40026283 C-14.01340818 26.88927584 -12.25782579 23.37923534 -10.50165176 19.86948776 C-9.66455489 18.19596084 -8.82805161 16.52213686 -7.99215317 14.84801102 C-6.83637598 12.53393433 -5.67806731 10.22114304 -4.51904297 7.90869141 C-4.17524094 7.21906311 -3.8314389 6.52943481 -3.47721863 5.81890869 C-1.11428358 1.11428358 -1.11428358 1.11428358 0 0 Z " fill="#000000" transform="translate(111,347)"/>
</svg>
